<mxfile host="app.diagrams.net" agent="Mozilla/5.0 (Macintosh; Intel Mac OS X 10_15_7) AppleWebKit/605.1.15 (KHTML, like Gecko) Version/17.6 Safari/605.1.15" version="25.0.1">
  <diagram name="Page-1" id="gcOh2L13ghurHqlArtQZ">
    <mxGraphModel dx="816" dy="480" grid="1" gridSize="10" guides="1" tooltips="1" connect="1" arrows="1" fold="1" page="1" pageScale="1" pageWidth="827" pageHeight="1169" background="#ffffff" math="0" shadow="0">
      <root>
        <mxCell id="0" />
        <mxCell id="1" parent="0" />
        <mxCell id="pkoyU2fwOPBfZemE1w7x-201" style="edgeStyle=orthogonalEdgeStyle;rounded=0;orthogonalLoop=1;jettySize=auto;html=1;exitX=0.5;exitY=1;exitDx=0;exitDy=0;entryX=0.5;entryY=0;entryDx=0;entryDy=0;" edge="1" parent="1" source="pkoyU2fwOPBfZemE1w7x-194" target="pkoyU2fwOPBfZemE1w7x-195">
          <mxGeometry relative="1" as="geometry" />
        </mxCell>
        <mxCell id="pkoyU2fwOPBfZemE1w7x-194" value="" style="ellipse;whiteSpace=wrap;html=1;aspect=fixed;" vertex="1" parent="1">
          <mxGeometry x="360" y="200" width="40" height="40" as="geometry" />
        </mxCell>
        <mxCell id="pkoyU2fwOPBfZemE1w7x-195" value="Receive a string" style="rounded=1;whiteSpace=wrap;html=1;" vertex="1" parent="1">
          <mxGeometry x="320" y="280" width="120" height="40" as="geometry" />
        </mxCell>
        <mxCell id="pkoyU2fwOPBfZemE1w7x-271" style="edgeStyle=orthogonalEdgeStyle;rounded=0;orthogonalLoop=1;jettySize=auto;html=1;exitX=0.5;exitY=1;exitDx=0;exitDy=0;entryX=0.5;entryY=0;entryDx=0;entryDy=0;" edge="1" parent="1" source="pkoyU2fwOPBfZemE1w7x-195" target="pkoyU2fwOPBfZemE1w7x-256">
          <mxGeometry relative="1" as="geometry">
            <mxPoint x="380" y="570" as="sourcePoint" />
          </mxGeometry>
        </mxCell>
        <mxCell id="pkoyU2fwOPBfZemE1w7x-255" style="edgeStyle=orthogonalEdgeStyle;rounded=0;orthogonalLoop=1;jettySize=auto;html=1;exitX=0.5;exitY=1;exitDx=0;exitDy=0;entryX=0.5;entryY=0;entryDx=0;entryDy=0;" edge="1" parent="1" source="pkoyU2fwOPBfZemE1w7x-256" target="pkoyU2fwOPBfZemE1w7x-257">
          <mxGeometry relative="1" as="geometry" />
        </mxCell>
        <mxCell id="pkoyU2fwOPBfZemE1w7x-256" value="Return the string with reversed words that are five or more long" style="rounded=1;whiteSpace=wrap;html=1;" vertex="1" parent="1">
          <mxGeometry x="315" y="350" width="130" height="50" as="geometry" />
        </mxCell>
        <mxCell id="pkoyU2fwOPBfZemE1w7x-257" value="" style="ellipse;whiteSpace=wrap;html=1;aspect=fixed;strokeWidth=3;" vertex="1" parent="1">
          <mxGeometry x="360" y="440" width="40" height="40" as="geometry" />
        </mxCell>
      </root>
    </mxGraphModel>
  </diagram>
</mxfile>
